<svg width="185" height="188" xmlns="http://www.w3.org/2000/svg" xmlns:svg="http://www.w3.org/2000/svg">
 <metadata id="metadata235">image/svg+xml</metadata>
 <g>
  <title>Layer 1</title>
  <g id="g76">
   <g fill="#000000" id="g16">
    <path id="path2" d="m115.912,17.967c0,2.676 -0.731,4.738 -2.193,6.186c-1.462,1.448 -3.518,2.171 -6.166,2.171l-5.148,0l0,-16.034l5.507,0c2.554,0 4.526,0.658 5.916,1.974c1.389,1.316 2.084,3.217 2.084,5.703zm-4.462,0.154c0,-1.469 -0.289,-2.559 -0.866,-3.268c-0.577,-0.709 -1.453,-1.064 -2.628,-1.064l-1.251,0l0,8.982l0.958,0c1.306,0 2.264,-0.382 2.874,-1.146s0.913,-1.932 0.913,-3.504z" fill="#000000"/>
    <path id="path4" d="m123.129,26.544c-2.053,0 -3.646,-0.55 -4.783,-1.65c-1.136,-1.101 -1.704,-2.667 -1.704,-4.7c0,-2.099 0.526,-3.709 1.578,-4.832c1.053,-1.122 2.555,-1.684 4.506,-1.684c1.857,0 3.293,0.488 4.305,1.464s1.52,2.382 1.52,4.217l0,1.908l-7.609,0c0.029,0.695 0.281,1.239 0.758,1.634c0.475,0.395 1.121,0.592 1.941,0.592c0.748,0 1.436,-0.071 2.063,-0.214c0.629,-0.143 1.309,-0.386 2.041,-0.729l0,3.082c-0.668,0.344 -1.357,0.581 -2.068,0.713c-0.712,0.133 -1.56,0.199 -2.548,0.199zm-0.25,-9.948c-0.5,0 -0.92,0.159 -1.256,0.477c-0.338,0.318 -0.537,0.817 -0.594,1.497l3.656,0c-0.014,-0.599 -0.184,-1.078 -0.506,-1.437s-0.755,-0.537 -1.3,-0.537z" fill="#000000"/>
    <path id="path6" d="m132.851,26.325l-4.702,-12.426l4.44,0l2.09,7.348c0.008,0.037 0.022,0.099 0.044,0.187s0.043,0.192 0.065,0.313c0.021,0.121 0.041,0.249 0.06,0.384c0.018,0.136 0.027,0.262 0.027,0.378l0.076,0c0,-0.38 0.065,-0.793 0.195,-1.239l2.188,-7.37l4.43,0l-4.702,12.426l-4.211,0l0,-0.001z" fill="#000000"/>
    <path id="path8" d="m146.381,26.325l-4.234,0l0,-16.035l9.404,0l0,3.477l-5.17,0l0,3.06l4.767,0l0,3.477l-4.767,0l0,6.021z" fill="#000000"/>
    <path id="path10" d="m158.528,26.544c-2.054,0 -3.647,-0.55 -4.783,-1.65s-1.703,-2.667 -1.703,-4.7c0,-2.099 0.525,-3.709 1.578,-4.832c1.052,-1.122 2.554,-1.684 4.506,-1.684c1.857,0 3.292,0.488 4.305,1.464c1.012,0.976 1.519,2.382 1.519,4.217l0,1.908l-7.608,0c0.029,0.695 0.281,1.239 0.757,1.634c0.475,0.395 1.122,0.592 1.942,0.592c0.747,0 1.435,-0.071 2.063,-0.214s1.308,-0.386 2.041,-0.729l0,3.082c-0.668,0.344 -1.357,0.581 -2.068,0.713c-0.713,0.133 -1.561,0.199 -2.549,0.199zm-0.25,-9.948c-0.501,0 -0.92,0.159 -1.257,0.477c-0.338,0.318 -0.536,0.817 -0.594,1.497l3.657,0c-0.015,-0.599 -0.184,-1.078 -0.506,-1.437c-0.322,-0.358 -0.756,-0.537 -1.3,-0.537z" fill="#000000"/>
    <path id="path12" d="m174.541,22.508c0,1.331 -0.45,2.336 -1.35,3.016c-0.9,0.68 -2.191,1.02 -3.875,1.02c-0.914,0 -1.709,-0.049 -2.384,-0.148s-1.364,-0.28 -2.067,-0.543l0,-3.433c0.66,0.292 1.384,0.534 2.171,0.724c0.787,0.19 1.489,0.285 2.106,0.285c0.921,0 1.382,-0.212 1.382,-0.636c0,-0.219 -0.129,-0.415 -0.386,-0.586c-0.258,-0.172 -1.007,-0.506 -2.248,-1.004c-1.132,-0.468 -1.923,-1 -2.373,-1.596c-0.449,-0.596 -0.675,-1.351 -0.675,-2.265c0,-1.155 0.442,-2.055 1.328,-2.698c0.885,-0.644 2.137,-0.965 3.755,-0.965c0.813,0 1.576,0.09 2.291,0.269s1.457,0.44 2.227,0.784l-1.154,2.764c-0.565,-0.256 -1.164,-0.473 -1.796,-0.652c-0.631,-0.179 -1.146,-0.269 -1.546,-0.269c-0.696,0 -1.044,0.172 -1.044,0.516c0,0.212 0.121,0.393 0.364,0.543s0.945,0.455 2.106,0.916c0.863,0.358 1.507,0.709 1.932,1.053s0.736,0.748 0.936,1.212c0.2,0.463 0.3,1.028 0.3,1.693z" fill="#000000"/>
    <path id="path14" d="m181.605,23.155c0.573,0 1.259,-0.143 2.058,-0.428l0,3.126c-0.573,0.249 -1.119,0.426 -1.639,0.532c-0.519,0.105 -1.126,0.159 -1.822,0.159c-1.43,0 -2.46,-0.353 -3.092,-1.058c-0.631,-0.706 -0.946,-1.79 -0.946,-3.252l0,-5.122l-1.491,0l0,-1.744l1.894,-1.349l1.1,-2.61l2.786,0l0,2.49l3.025,0l0,3.213l-3.025,0l0,4.837c-0.001,0.804 0.384,1.206 1.152,1.206z" fill="#000000"/>
   </g>
   <g fill="#000000" id="g38">
    <rect fill="#000000" y="-1.99319" x="263.61899" height="143.07527" width="146.455" id="rect4622"/>7
    <g id="svg_10">
     <path id="svg_11" d="m115.74583,44.35935c0,1.345 -0.486,2.399 -1.458,3.165c-0.973,0.766 -2.314,1.148 -4.024,1.148c-1.71,0 -3.11,-0.266 -4.2,-0.797l0,-2.338c0.689,0.324 1.422,0.579 2.198,0.766c0.776,0.187 1.499,0.279 2.167,0.279c0.979,0 1.702,-0.187 2.167,-0.559s0.698,-0.872 0.698,-1.5c0,-0.565 -0.214,-1.045 -0.641,-1.438c-0.428,-0.394 -1.311,-0.858 -2.648,-1.396c-1.379,-0.559 -2.352,-1.196 -2.917,-1.914c-0.565,-0.717 -0.848,-1.579 -0.848,-2.586c0,-1.262 0.448,-2.255 1.345,-2.979c0.896,-0.724 2.1,-1.086 3.61,-1.086c1.448,0 2.89,0.317 4.324,0.952l-0.786,2.017c-1.345,-0.565 -2.545,-0.848 -3.6,-0.848c-0.8,0 -1.407,0.174 -1.82,0.521c-0.414,0.349 -0.621,0.81 -0.621,1.382c0,0.393 0.083,0.729 0.248,1.008s0.438,0.543 0.817,0.792c0.379,0.248 1.062,0.575 2.048,0.982c1.11,0.462 1.924,0.894 2.441,1.293c0.517,0.4 0.896,0.852 1.138,1.355c0.241,0.505 0.362,1.099 0.362,1.781z" fill="#000000"/>
     <path id="svg_12" d="m122.13983,48.67335c-1.779,0 -3.171,-0.519 -4.174,-1.557s-1.505,-2.468 -1.505,-4.288c0,-1.869 0.465,-3.338 1.396,-4.407c0.931,-1.068 2.21,-1.603 3.838,-1.603c1.51,0 2.703,0.458 3.579,1.375c0.875,0.918 1.313,2.18 1.313,3.786l0,1.314l-7.624,0c0.034,1.11 0.334,1.964 0.9,2.56c0.566,0.596 1.362,0.896 2.39,0.896c0.676,0 1.305,-0.064 1.888,-0.191c0.583,-0.128 1.208,-0.34 1.877,-0.637l0,1.976c-0.593,0.283 -1.193,0.483 -1.8,0.601s-1.299,0.175 -2.078,0.175zm-0.445,-10.014c-0.772,0 -1.392,0.245 -1.857,0.734c-0.465,0.49 -0.743,1.204 -0.833,2.142l5.193,0c-0.014,-0.945 -0.242,-1.66 -0.683,-2.146s-1.048,-0.73 -1.82,-0.73z" fill="#000000"/>
     <path id="svg_13" d="m135.23583,48.46635l-0.486,-1.593l-0.082,0c-0.553,0.696 -1.107,1.171 -1.666,1.422c-0.559,0.252 -1.275,0.378 -2.152,0.378c-1.123,0 -2,-0.304 -2.631,-0.91c-0.633,-0.607 -0.947,-1.466 -0.947,-2.576c0,-1.179 0.438,-2.068 1.314,-2.669c0.875,-0.6 2.209,-0.928 4.002,-0.982l1.977,-0.063l0,-0.61c0,-0.73 -0.172,-1.277 -0.512,-1.64c-0.342,-0.361 -0.871,-0.543 -1.588,-0.543c-0.586,0 -1.148,0.087 -1.688,0.259c-0.537,0.173 -1.055,0.376 -1.551,0.61l-0.787,-1.737c0.621,-0.324 1.301,-0.571 2.039,-0.74s1.434,-0.253 2.09,-0.253c1.455,0 2.553,0.317 3.295,0.951c0.74,0.635 1.111,1.631 1.111,2.989l0,7.707l-1.738,0zm-3.621,-1.656c0.883,0 1.592,-0.246 2.127,-0.739c0.533,-0.493 0.801,-1.185 0.801,-2.074l0,-0.993l-1.469,0.063c-1.145,0.041 -1.977,0.232 -2.498,0.574c-0.521,0.341 -0.781,0.863 -0.781,1.566c0,0.511 0.152,0.905 0.455,1.185c0.305,0.279 0.76,0.418 1.365,0.418z" fill="#000000"/>
     <path id="svg_14" d="m146.78183,45.20735c0,1.117 -0.407,1.975 -1.221,2.571c-0.813,0.596 -1.979,0.895 -3.496,0.895c-1.524,0 -2.749,-0.231 -3.673,-0.693l0,-2.1c1.345,0.62 2.597,0.931 3.755,0.931c1.497,0 2.245,-0.451 2.245,-1.354c0,-0.29 -0.083,-0.531 -0.248,-0.725c-0.166,-0.193 -0.438,-0.393 -0.817,-0.6s-0.907,-0.441 -1.583,-0.704c-1.317,-0.51 -2.208,-1.021 -2.674,-1.53c-0.466,-0.511 -0.698,-1.173 -0.698,-1.986c0,-0.979 0.395,-1.739 1.185,-2.281c0.789,-0.541 1.863,-0.812 3.223,-0.812c1.345,0 2.617,0.272 3.816,0.816l-0.786,1.831c-1.234,-0.51 -2.272,-0.766 -3.113,-0.766c-1.283,0 -1.924,0.366 -1.924,1.097c0,0.359 0.167,0.662 0.501,0.91c0.335,0.249 1.064,0.59 2.188,1.024c0.944,0.366 1.631,0.7 2.059,1.004c0.427,0.303 0.744,0.653 0.951,1.05s0.31,0.87 0.31,1.422z" fill="#000000"/>
     <path id="svg_15" d="m158.28583,42.72535c0,1.869 -0.479,3.327 -1.438,4.376c-0.959,1.048 -2.293,1.572 -4.004,1.572c-1.068,0 -2.014,-0.241 -2.834,-0.725c-0.821,-0.482 -1.452,-1.176 -1.894,-2.079s-0.662,-1.951 -0.662,-3.145c0,-1.855 0.477,-3.303 1.428,-4.345c0.952,-1.041 2.293,-1.562 4.024,-1.562c1.655,0 2.965,0.532 3.931,1.598s1.449,2.503 1.449,4.31zm-8.327,0c0,2.642 0.976,3.962 2.928,3.962c1.931,0 2.896,-1.32 2.896,-3.962c0,-2.613 -0.973,-3.921 -2.918,-3.921c-1.021,0 -1.76,0.339 -2.219,1.015c-0.457,0.675 -0.687,1.644 -0.687,2.906z" fill="#000000"/>
     <path id="svg_16" d="m169.87283,48.46635l-2.441,0l0,-7.034c0,-0.883 -0.178,-1.541 -0.532,-1.976c-0.355,-0.435 -0.919,-0.652 -1.691,-0.652c-1.027,0 -1.779,0.304 -2.255,0.911c-0.477,0.606 -0.714,1.624 -0.714,3.051l0,5.7l-2.431,0l0,-11.441l1.903,0l0.341,1.5l0.124,0c0.345,-0.544 0.835,-0.965 1.469,-1.262c0.635,-0.296 1.338,-0.444 2.11,-0.444c2.745,0 4.117,1.396 4.117,4.189l0,7.458z" fill="#000000"/>
     <text id="svg_17" transform="matrix(1.006593942642212,0,0,0.9642857313156128,-0.41212141513824463,5.477117924019694) " xml:space="preserve" text-anchor="middle" font-family="serif" font-size="24" y="45.47423" x="76.19872" stroke-linecap="null" stroke-linejoin="null" stroke-dasharray="null" stroke-width="0" fill="#000000">2017</text>
    </g></g>
   <g fill="#000000" id="g46">
    <path id="path40" d="m55.571,17.313l6.922,0l0,8.644c-1.879,0.644 -3.945,0.965 -6.198,0.965c-2.472,0 -4.382,-0.716 -5.731,-2.15c-1.349,-1.433 -2.024,-3.477 -2.024,-6.132c0,-2.589 0.739,-4.603 2.216,-6.044c1.477,-1.44 3.547,-2.161 6.208,-2.161c1.009,0 1.962,0.095 2.858,0.285c0.896,0.19 1.676,0.432 2.342,0.724l-1.371,3.4c-1.156,-0.57 -2.424,-0.855 -3.807,-0.855c-1.265,0 -2.243,0.412 -2.934,1.234c-0.691,0.823 -1.037,1.999 -1.037,3.527c0,1.499 0.313,2.642 0.938,3.428c0.625,0.786 1.526,1.179 2.704,1.179c0.644,0 1.236,-0.062 1.777,-0.187l0,-2.512l-2.863,0l0,-3.345z" fill="#000000"/>
    <path id="path42" d="m78.026,18.344c0,2.676 -0.737,4.739 -2.21,6.187s-3.545,2.172 -6.214,2.172l-5.188,0l0,-16.037l5.551,0c2.574,0 4.561,0.658 5.961,1.975s2.1,3.217 2.1,5.703zm-4.497,0.154c0,-1.47 -0.291,-2.56 -0.872,-3.269c-0.582,-0.709 -1.464,-1.064 -2.649,-1.064l-1.262,0l0,8.983l0.965,0c1.316,0 2.282,-0.382 2.896,-1.146s0.922,-1.932 0.922,-3.504z" fill="#000000"/>
    <path id="path44" d="m85.991,17.313l6.922,0l0,8.644c-1.879,0.644 -3.945,0.965 -6.198,0.965c-2.472,0 -4.382,-0.716 -5.731,-2.15c-1.349,-1.433 -2.024,-3.477 -2.024,-6.132c0,-2.589 0.739,-4.603 2.216,-6.044c1.477,-1.44 3.547,-2.161 6.208,-2.161c1.009,0 1.962,0.095 2.858,0.285c0.896,0.19 1.676,0.432 2.342,0.724l-1.371,3.4c-1.156,-0.57 -2.424,-0.855 -3.807,-0.855c-1.265,0 -2.243,0.412 -2.934,1.234c-0.691,0.823 -1.037,1.999 -1.037,3.527c0,1.499 0.313,2.642 0.938,3.428c0.625,0.786 1.526,1.179 2.704,1.179c0.644,0 1.236,-0.062 1.777,-0.187l0,-2.512l-2.863,0l0,-3.345z" fill="#000000"/>
   </g>
   <radialGradient gradientUnits="userSpaceOnUse" gradientTransform="matrix(0.498 0 0 0.498 172.2891 79.7388)" r="20.1137" cy="-60.055" cx="-310.583" id="SVGID_1_">
    <stop stop-color="#FFCF4F" id="stop48" offset="0"/>
    <stop stop-color="#F4C236" id="stop50" offset="1"/>
   </radialGradient>
   <path id="path53" d="m8.91,61l6.791,0c1.607,0 3.604,-1.128 4.432,-2.511l5.72,-9.519c0.677,-1.396 0.653,-3.426 -0.119,-4.713l-3.378,-5.592l-13.446,22.335z" fill="url(#SVGID_1_)"/>
   <radialGradient gradientUnits="userSpaceOnUse" gradientTransform="matrix(0.498 0 0 0.498 172.2891 79.7388)" r="27.6582" cy="-70.2695" cx="-322.6347" id="SVGID_2_">
    <stop stop-color="#08A960" id="stop55" offset="0"/>
    <stop stop-color="#07914B" id="stop57" offset="1"/>
   </radialGradient>
   <path id="path60" d="m16.209,33.514l-15.101,25.249c-0.584,1.248 0.023,2.237 1.521,2.237l6.281,0l13.446,-22.335l-6.146,-10.173c0.829,1.378 0.829,3.638 -0.001,5.022" fill="url(#SVGID_2_)"/>
   <radialGradient gradientUnits="userSpaceOnUse" gradientTransform="matrix(0.498 0 0 0.498 172.2891 79.7388)" r="40.54" cy="-109.9511" cx="-313.1831" id="SVGID_3_">
    <stop stop-color="#567FC0" id="stop62" offset="0"/>
    <stop stop-color="#557FC0" id="stop64" offset="1"/>
   </radialGradient>
   <path id="path67" d="m2.629,1c-1.614,0 -2.254,1.133 -1.424,2.511l24.529,40.745c0.772,1.288 0.795,3.317 0.119,4.713l5.963,-9.925l-22.902,-38.044l-6.285,0z" fill="url(#SVGID_3_)"/>
   <radialGradient gradientUnits="userSpaceOnUse" gradientTransform="matrix(0.498 0 0 0.498 172.2891 79.7388)" r="33.0584" cy="-119.9164" cx="-301.1191" id="SVGID_4_">
    <stop stop-color="#E14C40" id="stop69" offset="0"/>
    <stop stop-color="#CD392D" id="stop71" offset="1"/>
   </radialGradient>
   <path id="path74" d="m8.914,1l22.903,38.045l3.321,-5.53c0.83,-1.385 0.83,-3.645 0,-5.023l-15.005,-24.981c-0.828,-1.378 -2.825,-2.511 -4.432,-2.511l-6.787,0z" fill="url(#SVGID_4_)"/>
  </g>
  <g id="g152">
   <g id="g92">
    <path id="path78" d="m115.912,80.967c0,2.677 -0.731,4.738 -2.193,6.187c-1.462,1.447 -3.518,2.171 -6.166,2.171l-5.148,0l0,-16.035l5.507,0c2.554,0 4.526,0.657 5.916,1.974s2.084,3.217 2.084,5.703zm-4.462,0.153c0,-1.469 -0.289,-2.559 -0.866,-3.268c-0.577,-0.71 -1.453,-1.064 -2.628,-1.064l-1.251,0l0,8.982l0.958,0c1.306,0 2.264,-0.382 2.874,-1.146c0.608,-0.764 0.913,-1.932 0.913,-3.504z" fill="#4E4E4E"/>
    <path id="path80" d="m123.129,89.544c-2.053,0 -3.646,-0.55 -4.783,-1.65c-1.136,-1.101 -1.704,-2.667 -1.704,-4.7c0,-2.099 0.526,-3.709 1.578,-4.831c1.053,-1.122 2.555,-1.684 4.506,-1.684c1.857,0 3.293,0.488 4.305,1.464c1.012,0.977 1.52,2.382 1.52,4.218l0,1.908l-7.609,0c0.029,0.694 0.281,1.239 0.758,1.634c0.475,0.396 1.121,0.593 1.941,0.593c0.748,0 1.436,-0.071 2.063,-0.214c0.629,-0.143 1.309,-0.386 2.041,-0.729l0,3.082c-0.668,0.344 -1.357,0.581 -2.068,0.713c-0.712,0.13 -1.56,0.196 -2.548,0.196zm-0.25,-9.948c-0.5,0 -0.92,0.159 -1.256,0.478c-0.338,0.318 -0.537,0.817 -0.594,1.497l3.656,0c-0.014,-0.6 -0.184,-1.078 -0.506,-1.437s-0.755,-0.538 -1.3,-0.538z" fill="#4E4E4E"/>
    <path id="path82" d="m132.851,89.324l-4.702,-12.426l4.44,0l2.09,7.348c0.008,0.037 0.022,0.099 0.044,0.187s0.043,0.192 0.065,0.313c0.021,0.121 0.041,0.249 0.06,0.384c0.018,0.136 0.027,0.262 0.027,0.379l0.076,0c0,-0.38 0.065,-0.793 0.195,-1.239l2.188,-7.37l4.43,0l-4.702,12.426l-4.211,0l0,-0.002z" fill="#4E4E4E"/>
    <path id="path84" d="m146.381,89.324l-4.234,0l0,-16.034l9.404,0l0,3.477l-5.17,0l0,3.06l4.767,0l0,3.477l-4.767,0l0,6.02z" fill="#4E4E4E"/>
    <path id="path86" d="m158.528,89.544c-2.054,0 -3.647,-0.55 -4.783,-1.65s-1.703,-2.667 -1.703,-4.7c0,-2.099 0.525,-3.709 1.578,-4.831c1.052,-1.122 2.554,-1.684 4.506,-1.684c1.857,0 3.292,0.488 4.305,1.464c1.012,0.977 1.519,2.382 1.519,4.218l0,1.908l-7.608,0c0.029,0.694 0.281,1.239 0.757,1.634c0.475,0.396 1.122,0.593 1.942,0.593c0.747,0 1.435,-0.071 2.063,-0.214s1.308,-0.386 2.041,-0.729l0,3.082c-0.668,0.344 -1.357,0.581 -2.068,0.713c-0.713,0.13 -1.561,0.196 -2.549,0.196zm-0.25,-9.948c-0.501,0 -0.92,0.159 -1.257,0.478c-0.338,0.318 -0.536,0.817 -0.594,1.497l3.657,0c-0.015,-0.6 -0.184,-1.078 -0.506,-1.437c-0.322,-0.359 -0.756,-0.538 -1.3,-0.538z" fill="#4E4E4E"/>
    <path id="path88" d="m174.541,85.508c0,1.331 -0.45,2.336 -1.35,3.016c-0.9,0.681 -2.191,1.021 -3.875,1.021c-0.914,0 -1.709,-0.05 -2.384,-0.148s-1.364,-0.279 -2.067,-0.543l0,-3.434c0.66,0.293 1.384,0.534 2.171,0.724c0.787,0.19 1.489,0.285 2.106,0.285c0.921,0 1.382,-0.212 1.382,-0.636c0,-0.22 -0.129,-0.415 -0.386,-0.587c-0.258,-0.172 -1.007,-0.506 -2.248,-1.004c-1.132,-0.468 -1.923,-0.999 -2.373,-1.596c-0.449,-0.596 -0.675,-1.351 -0.675,-2.265c0,-1.155 0.442,-2.055 1.328,-2.698c0.885,-0.644 2.137,-0.965 3.755,-0.965c0.813,0 1.576,0.09 2.291,0.269c0.715,0.18 1.457,0.44 2.227,0.784l-1.154,2.764c-0.565,-0.256 -1.164,-0.473 -1.796,-0.652c-0.631,-0.179 -1.146,-0.269 -1.546,-0.269c-0.696,0 -1.044,0.172 -1.044,0.516c0,0.212 0.121,0.393 0.364,0.543c0.243,0.149 0.945,0.455 2.106,0.915c0.863,0.358 1.507,0.71 1.932,1.054s0.736,0.747 0.936,1.212c0.2,0.463 0.3,1.029 0.3,1.694z" fill="#4E4E4E"/>
    <path id="path90" d="m181.605,86.154c0.573,0 1.259,-0.143 2.058,-0.428l0,3.126c-0.573,0.249 -1.119,0.427 -1.639,0.532c-0.519,0.105 -1.126,0.159 -1.822,0.159c-1.43,0 -2.46,-0.353 -3.092,-1.059c-0.631,-0.705 -0.946,-1.789 -0.946,-3.252l0,-5.122l-1.491,0l0,-1.743l1.894,-1.35l1.1,-2.61l2.786,0l0,2.49l3.025,0l0,3.213l-3.025,0l0,4.837c-0.001,0.806 0.384,1.207 1.152,1.207z" fill="#4E4E4E"/>
   </g>
   <g id="g122">
    <path id="path116" d="m55.571,80.313l6.922,0l0,8.644c-1.879,0.644 -3.945,0.966 -6.198,0.966c-2.472,0 -4.382,-0.717 -5.731,-2.15c-1.349,-1.433 -2.024,-3.477 -2.024,-6.132c0,-2.589 0.739,-4.603 2.216,-6.044c1.477,-1.44 3.547,-2.161 6.208,-2.161c1.009,0 1.962,0.096 2.858,0.285c0.896,0.19 1.676,0.432 2.342,0.725l-1.371,3.4c-1.156,-0.57 -2.424,-0.855 -3.807,-0.855c-1.265,0 -2.243,0.411 -2.934,1.233c-0.691,0.823 -1.037,1.999 -1.037,3.527c0,1.499 0.313,2.642 0.938,3.428c0.625,0.786 1.526,1.179 2.704,1.179c0.644,0 1.236,-0.062 1.777,-0.187l0,-2.512l-2.863,0l0,-3.346z" fill="#4E4E4E"/>
    <path id="path118" d="m78.026,81.344c0,2.677 -0.737,4.739 -2.21,6.187c-1.474,1.448 -3.545,2.172 -6.214,2.172l-5.188,0l0,-16.038l5.551,0c2.574,0 4.561,0.658 5.961,1.975s2.1,3.217 2.1,5.704zm-4.497,0.153c0,-1.47 -0.291,-2.56 -0.872,-3.269s-1.464,-1.063 -2.649,-1.063l-1.262,0l0,8.983l0.965,0c1.316,0 2.282,-0.382 2.896,-1.146c0.615,-0.764 0.922,-1.933 0.922,-3.505z" fill="#4E4E4E"/>
    <path id="path120" d="m85.991,80.313l6.922,0l0,8.644c-1.879,0.644 -3.945,0.966 -6.198,0.966c-2.472,0 -4.382,-0.717 -5.731,-2.15c-1.349,-1.433 -2.024,-3.477 -2.024,-6.132c0,-2.589 0.739,-4.603 2.216,-6.044c1.477,-1.44 3.547,-2.161 6.208,-2.161c1.009,0 1.962,0.096 2.858,0.285c0.896,0.19 1.676,0.432 2.342,0.725l-1.371,3.4c-1.156,-0.57 -2.424,-0.855 -3.807,-0.855c-1.265,0 -2.243,0.411 -2.934,1.233c-0.691,0.823 -1.037,1.999 -1.037,3.527c0,1.499 0.313,2.642 0.938,3.428c0.625,0.786 1.526,1.179 2.704,1.179c0.644,0 1.236,-0.062 1.777,-0.187l0,-2.512l-2.863,0l0,-3.346z" fill="#4E4E4E"/>
   </g>
   <radialGradient gradientUnits="userSpaceOnUse" gradientTransform="matrix(0.498 0 0 0.498 172.2891 79.7388)" r="20.1137" cy="66.4552" cx="-310.583" id="SVGID_5_">
    <stop stop-color="#CCCCCC" id="stop124" offset="0"/>
    <stop stop-color="#C0C0C0" id="stop126" offset="1"/>
   </radialGradient>
   <path id="path129" d="m8.91,124l6.791,0c1.607,0 3.604,-1.128 4.432,-2.511l5.72,-9.519c0.677,-1.396 0.653,-3.426 -0.119,-4.713l-3.378,-5.592l-13.446,22.335z" fill="url(#SVGID_5_)"/>
   <radialGradient gradientUnits="userSpaceOnUse" gradientTransform="matrix(0.498 0 0 0.498 172.2891 79.7388)" r="27.6582" cy="56.2407" cx="-322.6347" id="SVGID_6_">
    <stop stop-color="#A0A0A0" id="stop131" offset="0"/>
    <stop stop-color="#7B7B7B" id="stop133" offset="1"/>
   </radialGradient>
   <path id="path136" d="m16.209,96.514l-15.101,25.249c-0.584,1.248 0.023,2.237 1.521,2.237l6.281,0l13.446,-22.335l-6.146,-10.173c0.829,1.378 0.829,3.638 -0.001,5.022" fill="url(#SVGID_6_)"/>
   <radialGradient gradientUnits="userSpaceOnUse" gradientTransform="matrix(0.498 0 0 0.498 172.2891 79.7388)" r="40.54" cy="16.559" cx="-313.1831" id="SVGID_7_">
    <stop stop-color="#848484" id="stop138" offset="0"/>
    <stop stop-color="#838383" id="stop140" offset="1"/>
   </radialGradient>
   <path id="path143" d="m2.629,64c-1.613,0 -2.254,1.133 -1.424,2.511l24.529,40.745c0.772,1.288 0.795,3.317 0.119,4.713l5.963,-9.925l-22.902,-38.044l-6.285,0z" fill="url(#SVGID_7_)"/>
   <radialGradient gradientUnits="userSpaceOnUse" gradientTransform="matrix(0.498 0 0 0.498 172.2891 79.7388)" r="33.0584" cy="6.5938" cx="-301.1191" id="SVGID_8_">
    <stop stop-color="#626262" id="stop145" offset="0"/>
    <stop stop-color="#474747" id="stop147" offset="1"/>
   </radialGradient>
   <path id="path150" d="m8.914,64l22.903,38.045l3.321,-5.53c0.83,-1.385 0.83,-3.645 0,-5.023l-15.004,-24.98c-0.829,-1.379 -2.826,-2.512 -4.433,-2.512l-6.787,0z" fill="url(#SVGID_8_)"/>
   <g id="svg_1">
    <path id="svg_2" d="m114.74583,106.35935c0,1.345 -0.486,2.399 -1.458,3.165c-0.973,0.766 -2.314,1.148 -4.024,1.148c-1.71,0 -3.11,-0.266 -4.2,-0.797l0,-2.338c0.689,0.324 1.422,0.579 2.198,0.766c0.776,0.187 1.499,0.279 2.167,0.279c0.979,0 1.702,-0.187 2.167,-0.559s0.698,-0.872 0.698,-1.5c0,-0.565 -0.214,-1.045 -0.641,-1.438c-0.428,-0.394 -1.311,-0.858 -2.648,-1.396c-1.379,-0.559 -2.352,-1.196 -2.917,-1.914c-0.565,-0.717 -0.848,-1.579 -0.848,-2.586c0,-1.262 0.448,-2.255 1.345,-2.979c0.896,-0.724 2.1,-1.086 3.61,-1.086c1.448,0 2.89,0.317 4.324,0.952l-0.786,2.017c-1.345,-0.565 -2.545,-0.848 -3.6,-0.848c-0.8,0 -1.407,0.174 -1.82,0.521c-0.414,0.349 -0.621,0.81 -0.621,1.382c0,0.393 0.083,0.729 0.248,1.008s0.438,0.543 0.817,0.792c0.379,0.248 1.062,0.575 2.048,0.982c1.11,0.462 1.924,0.894 2.441,1.293c0.517,0.4 0.896,0.852 1.138,1.355c0.241,0.505 0.362,1.099 0.362,1.781z" fill="#3f3f3f"/>
    <path id="svg_3" d="m121.13983,110.67335c-1.779,0 -3.171,-0.519 -4.174,-1.557s-1.505,-2.468 -1.505,-4.288c0,-1.869 0.465,-3.338 1.396,-4.407c0.931,-1.068 2.21,-1.603 3.838,-1.603c1.51,0 2.703,0.458 3.579,1.375c0.875,0.918 1.313,2.18 1.313,3.786l0,1.314l-7.624,0c0.034,1.11 0.334,1.964 0.9,2.56c0.566,0.596 1.362,0.896 2.39,0.896c0.676,0 1.305,-0.064 1.888,-0.191c0.583,-0.128 1.208,-0.34 1.877,-0.637l0,1.976c-0.593,0.283 -1.193,0.483 -1.8,0.601s-1.299,0.175 -2.078,0.175zm-0.445,-10.014c-0.772,0 -1.392,0.245 -1.857,0.734c-0.465,0.49 -0.743,1.204 -0.833,2.142l5.193,0c-0.014,-0.945 -0.242,-1.66 -0.683,-2.146s-1.048,-0.73 -1.82,-0.73z" fill="#3f3f3f"/>
    <path id="svg_5" d="m134.23583,110.46635l-0.486,-1.593l-0.082,0c-0.553,0.696 -1.107,1.171 -1.666,1.422c-0.559,0.252 -1.275,0.378 -2.152,0.378c-1.123,0 -2,-0.304 -2.631,-0.91c-0.633,-0.607 -0.947,-1.466 -0.947,-2.576c0,-1.179 0.438,-2.068 1.314,-2.669c0.875,-0.6 2.209,-0.928 4.002,-0.982l1.977,-0.063l0,-0.61c0,-0.73 -0.172,-1.277 -0.512,-1.64c-0.342,-0.361 -0.871,-0.543 -1.588,-0.543c-0.586,0 -1.148,0.087 -1.688,0.259c-0.537,0.173 -1.055,0.376 -1.551,0.61l-0.787,-1.737c0.621,-0.324 1.301,-0.571 2.039,-0.74s1.434,-0.253 2.09,-0.253c1.455,0 2.553,0.317 3.295,0.951c0.74,0.635 1.111,1.631 1.111,2.989l0,7.707l-1.738,0zm-3.621,-1.656c0.883,0 1.592,-0.246 2.127,-0.739c0.533,-0.493 0.801,-1.185 0.801,-2.074l0,-0.993l-1.469,0.063c-1.145,0.041 -1.977,0.232 -2.498,0.574c-0.521,0.341 -0.781,0.863 -0.781,1.566c0,0.511 0.152,0.905 0.455,1.185c0.305,0.279 0.76,0.418 1.365,0.418z" fill="#3f3f3f"/>
    <path id="svg_6" d="m145.78183,107.20735c0,1.117 -0.407,1.975 -1.221,2.571c-0.813,0.596 -1.979,0.895 -3.496,0.895c-1.524,0 -2.749,-0.231 -3.673,-0.693l0,-2.1c1.345,0.62 2.597,0.931 3.755,0.931c1.497,0 2.245,-0.451 2.245,-1.354c0,-0.29 -0.083,-0.531 -0.248,-0.725c-0.166,-0.193 -0.438,-0.393 -0.817,-0.6s-0.907,-0.441 -1.583,-0.704c-1.317,-0.51 -2.208,-1.021 -2.674,-1.53c-0.466,-0.511 -0.698,-1.173 -0.698,-1.986c0,-0.979 0.395,-1.739 1.185,-2.281c0.789,-0.541 1.863,-0.812 3.223,-0.812c1.345,0 2.617,0.272 3.816,0.816l-0.786,1.831c-1.234,-0.51 -2.272,-0.766 -3.113,-0.766c-1.283,0 -1.924,0.366 -1.924,1.097c0,0.359 0.167,0.662 0.501,0.91c0.335,0.249 1.064,0.59 2.188,1.024c0.944,0.366 1.631,0.7 2.059,1.004c0.427,0.303 0.744,0.653 0.951,1.05s0.31,0.87 0.31,1.422z" fill="#3f3f3f"/>
    <path id="svg_7" d="m157.28583,104.72535c0,1.869 -0.479,3.327 -1.438,4.376c-0.959,1.048 -2.293,1.572 -4.004,1.572c-1.068,0 -2.014,-0.241 -2.834,-0.725c-0.821,-0.482 -1.452,-1.176 -1.894,-2.079s-0.662,-1.951 -0.662,-3.145c0,-1.855 0.477,-3.303 1.428,-4.345c0.952,-1.041 2.293,-1.562 4.024,-1.562c1.655,0 2.965,0.532 3.931,1.598s1.449,2.503 1.449,4.31zm-8.327,0c0,2.642 0.976,3.962 2.928,3.962c1.931,0 2.896,-1.32 2.896,-3.962c0,-2.613 -0.973,-3.921 -2.918,-3.921c-1.021,0 -1.76,0.339 -2.219,1.015c-0.457,0.675 -0.687,1.644 -0.687,2.906z" fill="#3f3f3f"/>
    <path id="svg_8" d="m168.87283,110.46635l-2.441,0l0,-7.034c0,-0.883 -0.178,-1.541 -0.532,-1.976c-0.355,-0.435 -0.919,-0.652 -1.691,-0.652c-1.027,0 -1.779,0.304 -2.255,0.911c-0.477,0.606 -0.714,1.624 -0.714,3.051l0,5.7l-2.431,0l0,-11.441l1.903,0l0.341,1.5l0.124,0c0.345,-0.544 0.835,-0.965 1.469,-1.262c0.635,-0.296 1.338,-0.444 2.11,-0.444c2.745,0 4.117,1.396 4.117,4.189l0,7.458z" fill="#3f3f3f"/>
    <text id="svg_9" transform="matrix(1.006593942642212,0,0,0.9642857313156128,-0.41212141513824463,5.477117924019694) " xml:space="preserve" text-anchor="middle" font-family="serif" font-size="24" y="109.77052" x="75.20527" stroke-linecap="null" stroke-linejoin="null" stroke-dasharray="null" stroke-width="0" fill="#3f3f3f">2017</text>
   </g>
  </g>
  <g id="g228">
   <g id="g168">
    <path id="path154" d="m116.071,143.967c0,2.676 -0.731,4.738 -2.193,6.186c-1.462,1.448 -3.518,2.172 -6.166,2.172l-5.148,0l0,-16.035l5.507,0c2.554,0 4.526,0.658 5.916,1.975s2.084,3.215 2.084,5.702zm-4.463,0.153c0,-1.47 -0.289,-2.559 -0.866,-3.269c-0.577,-0.709 -1.453,-1.063 -2.628,-1.063l-1.251,0l0,8.982l0.958,0c1.306,0 2.264,-0.382 2.874,-1.146c0.608,-0.764 0.913,-1.932 0.913,-3.504z" fill="#bfbfbf"/>
    <path id="path156" d="m123.287,152.544c-2.053,0 -3.646,-0.551 -4.782,-1.651c-1.136,-1.1 -1.704,-2.667 -1.704,-4.699c0,-2.099 0.526,-3.709 1.578,-4.831c1.052,-1.123 2.554,-1.684 4.505,-1.684c1.857,0 3.293,0.487 4.305,1.464s1.52,2.382 1.52,4.217l0,1.909l-7.609,0c0.029,0.694 0.281,1.239 0.758,1.634c0.475,0.395 1.121,0.592 1.941,0.592c0.748,0 1.436,-0.071 2.063,-0.214c0.629,-0.143 1.309,-0.385 2.041,-0.729l0,3.081c-0.668,0.344 -1.357,0.582 -2.068,0.713c-0.712,0.132 -1.56,0.198 -2.548,0.198zm-0.25,-9.948c-0.5,0 -0.92,0.159 -1.256,0.478c-0.338,0.317 -0.537,0.816 -0.594,1.497l3.656,0c-0.014,-0.6 -0.184,-1.079 -0.506,-1.438c-0.321,-0.358 -0.755,-0.537 -1.3,-0.537z" fill="#bfbfbf"/>
    <path id="path158" d="m133.009,152.324l-4.702,-12.427l4.44,0l2.09,7.349c0.008,0.037 0.022,0.099 0.044,0.187s0.043,0.192 0.065,0.313c0.021,0.121 0.041,0.249 0.06,0.384c0.018,0.136 0.027,0.262 0.027,0.379l0.076,0c0,-0.381 0.065,-0.794 0.195,-1.239l2.188,-7.371l4.43,0l-4.702,12.427l-4.211,0l0,-0.002z" fill="#bfbfbf"/>
    <path id="path160" d="m146.539,152.324l-4.234,0l0,-16.035l9.404,0l0,3.478l-5.17,0l0,3.06l4.767,0l0,3.477l-4.767,0l0,6.02z" fill="#bfbfbf"/>
    <path id="path162" d="m158.687,152.544c-2.054,0 -3.647,-0.551 -4.783,-1.651c-1.136,-1.1 -1.703,-2.667 -1.703,-4.699c0,-2.099 0.525,-3.709 1.578,-4.831c1.052,-1.123 2.554,-1.684 4.506,-1.684c1.857,0 3.292,0.487 4.305,1.464c1.012,0.977 1.519,2.382 1.519,4.217l0,1.909l-7.608,0c0.029,0.694 0.281,1.239 0.757,1.634c0.475,0.395 1.122,0.592 1.942,0.592c0.747,0 1.435,-0.071 2.063,-0.214s1.308,-0.385 2.041,-0.729l0,3.081c-0.668,0.344 -1.357,0.582 -2.068,0.713c-0.714,0.132 -1.562,0.198 -2.549,0.198zm-0.25,-9.948c-0.501,0 -0.92,0.159 -1.257,0.478c-0.338,0.317 -0.536,0.816 -0.594,1.497l3.657,0c-0.015,-0.6 -0.184,-1.079 -0.506,-1.438c-0.323,-0.358 -0.757,-0.537 -1.3,-0.537z" fill="#bfbfbf"/>
    <path id="path164" d="m174.699,148.508c0,1.33 -0.45,2.336 -1.35,3.016c-0.9,0.68 -2.191,1.021 -3.875,1.021c-0.914,0 -1.709,-0.05 -2.384,-0.148s-1.364,-0.279 -2.067,-0.543l0,-3.433c0.66,0.292 1.384,0.533 2.171,0.724s1.489,0.285 2.106,0.285c0.921,0 1.382,-0.212 1.382,-0.636c0,-0.22 -0.129,-0.415 -0.386,-0.587c-0.258,-0.172 -1.007,-0.507 -2.248,-1.004c-1.132,-0.468 -1.923,-1 -2.373,-1.596c-0.449,-0.596 -0.675,-1.351 -0.675,-2.265c0,-1.155 0.442,-2.055 1.328,-2.698c0.885,-0.644 2.137,-0.965 3.755,-0.965c0.813,0 1.576,0.089 2.291,0.269c0.715,0.179 1.457,0.44 2.227,0.784l-1.154,2.764c-0.565,-0.256 -1.164,-0.474 -1.796,-0.652c-0.631,-0.18 -1.146,-0.269 -1.546,-0.269c-0.696,0 -1.044,0.172 -1.044,0.516c0,0.212 0.121,0.393 0.364,0.542c0.243,0.15 0.945,0.456 2.106,0.916c0.863,0.358 1.507,0.71 1.932,1.053c0.425,0.344 0.736,0.748 0.936,1.212c0.201,0.463 0.3,1.028 0.3,1.694z" fill="#bfbfbf"/>
    <path id="path166" d="m181.764,149.154c0.573,0 1.259,-0.143 2.058,-0.428l0,3.126c-0.573,0.249 -1.119,0.426 -1.639,0.532c-0.519,0.105 -1.126,0.159 -1.822,0.159c-1.43,0 -2.46,-0.354 -3.092,-1.059c-0.631,-0.706 -0.946,-1.79 -0.946,-3.252l0,-5.122l-1.491,0l0,-1.744l1.894,-1.349l1.1,-2.61l2.786,0l0,2.489l3.025,0l0,3.214l-3.025,0l0,4.837c-0.002,0.806 0.383,1.207 1.152,1.207z" fill="#bfbfbf"/>
   </g>
   <g id="g190">
    <path id="path178" d="m114.244,169.779c0,1.345 -0.486,2.399 -1.458,3.165c-0.973,0.766 -2.314,1.148 -4.024,1.148c-1.71,0 -3.11,-0.266 -4.2,-0.797l0,-2.338c0.689,0.324 1.422,0.579 2.198,0.766c0.776,0.187 1.499,0.279 2.167,0.279c0.979,0 1.702,-0.187 2.167,-0.559s0.698,-0.872 0.698,-1.5c0,-0.565 -0.214,-1.045 -0.641,-1.438c-0.428,-0.394 -1.311,-0.858 -2.648,-1.396c-1.379,-0.559 -2.352,-1.196 -2.917,-1.914c-0.565,-0.717 -0.848,-1.579 -0.848,-2.586c0,-1.262 0.448,-2.255 1.345,-2.979c0.896,-0.724 2.1,-1.086 3.61,-1.086c1.448,0 2.89,0.317 4.324,0.952l-0.786,2.017c-1.345,-0.565 -2.545,-0.848 -3.6,-0.848c-0.8,0 -1.407,0.174 -1.82,0.521c-0.414,0.349 -0.621,0.81 -0.621,1.382c0,0.393 0.083,0.729 0.248,1.008s0.438,0.543 0.817,0.792c0.379,0.248 1.062,0.575 2.048,0.982c1.11,0.462 1.924,0.894 2.441,1.293c0.517,0.4 0.896,0.852 1.138,1.355c0.241,0.505 0.362,1.099 0.362,1.781z" fill="#bfbfbf"/>
    <path id="path180" d="m120.638,174.093c-1.779,0 -3.171,-0.519 -4.174,-1.557s-1.505,-2.468 -1.505,-4.288c0,-1.869 0.465,-3.338 1.396,-4.407c0.931,-1.068 2.21,-1.603 3.838,-1.603c1.51,0 2.703,0.458 3.579,1.375c0.875,0.918 1.313,2.18 1.313,3.786l0,1.314l-7.624,0c0.034,1.11 0.334,1.964 0.9,2.56c0.566,0.596 1.362,0.896 2.39,0.896c0.676,0 1.305,-0.064 1.888,-0.191c0.583,-0.128 1.208,-0.34 1.877,-0.637l0,1.976c-0.593,0.283 -1.193,0.483 -1.8,0.601s-1.299,0.175 -2.078,0.175zm-0.445,-10.014c-0.772,0 -1.392,0.245 -1.857,0.734c-0.465,0.49 -0.743,1.204 -0.833,2.142l5.193,0c-0.014,-0.945 -0.242,-1.66 -0.683,-2.146s-1.048,-0.73 -1.82,-0.73z" fill="#bfbfbf"/>
    <path id="path182" d="m133.734,173.886l-0.486,-1.593l-0.082,0c-0.553,0.696 -1.107,1.171 -1.666,1.422c-0.559,0.252 -1.275,0.378 -2.152,0.378c-1.123,0 -2,-0.304 -2.631,-0.91c-0.633,-0.607 -0.947,-1.466 -0.947,-2.576c0,-1.179 0.438,-2.068 1.314,-2.669c0.875,-0.6 2.209,-0.928 4.002,-0.982l1.977,-0.063l0,-0.61c0,-0.73 -0.172,-1.277 -0.512,-1.64c-0.342,-0.361 -0.871,-0.543 -1.588,-0.543c-0.586,0 -1.148,0.087 -1.688,0.259c-0.537,0.173 -1.055,0.376 -1.551,0.61l-0.787,-1.737c0.621,-0.324 1.301,-0.571 2.039,-0.74s1.434,-0.253 2.09,-0.253c1.455,0 2.553,0.317 3.295,0.951c0.74,0.635 1.111,1.631 1.111,2.989l0,7.707l-1.738,0zm-3.621,-1.656c0.883,0 1.592,-0.246 2.127,-0.739c0.533,-0.493 0.801,-1.185 0.801,-2.074l0,-0.993l-1.469,0.063c-1.145,0.041 -1.977,0.232 -2.498,0.574c-0.521,0.341 -0.781,0.863 -0.781,1.566c0,0.511 0.152,0.905 0.455,1.185c0.305,0.279 0.76,0.418 1.365,0.418z" fill="#bfbfbf"/>
    <path id="path184" d="m145.28,170.627c0,1.117 -0.407,1.975 -1.221,2.571c-0.813,0.596 -1.979,0.895 -3.496,0.895c-1.524,0 -2.749,-0.231 -3.673,-0.693l0,-2.1c1.345,0.62 2.597,0.931 3.755,0.931c1.497,0 2.245,-0.451 2.245,-1.354c0,-0.29 -0.083,-0.531 -0.248,-0.725c-0.166,-0.193 -0.438,-0.393 -0.817,-0.6s-0.907,-0.441 -1.583,-0.704c-1.317,-0.51 -2.208,-1.021 -2.674,-1.53c-0.466,-0.511 -0.698,-1.173 -0.698,-1.986c0,-0.979 0.395,-1.739 1.185,-2.281c0.789,-0.541 1.863,-0.812 3.223,-0.812c1.345,0 2.617,0.272 3.816,0.816l-0.786,1.831c-1.234,-0.51 -2.272,-0.766 -3.113,-0.766c-1.283,0 -1.924,0.366 -1.924,1.097c0,0.359 0.167,0.662 0.501,0.91c0.335,0.249 1.064,0.59 2.188,1.024c0.944,0.366 1.631,0.7 2.059,1.004c0.427,0.303 0.744,0.653 0.951,1.05s0.31,0.87 0.31,1.422z" fill="#bfbfbf"/>
    <path id="path186" d="m156.784,168.145c0,1.869 -0.479,3.327 -1.438,4.376c-0.959,1.048 -2.293,1.572 -4.004,1.572c-1.068,0 -2.014,-0.241 -2.834,-0.725c-0.821,-0.482 -1.452,-1.176 -1.894,-2.079s-0.662,-1.951 -0.662,-3.145c0,-1.855 0.477,-3.303 1.428,-4.345c0.952,-1.041 2.293,-1.562 4.024,-1.562c1.655,0 2.965,0.532 3.931,1.598s1.449,2.503 1.449,4.31zm-8.327,0c0,2.642 0.976,3.962 2.928,3.962c1.931,0 2.896,-1.32 2.896,-3.962c0,-2.613 -0.973,-3.921 -2.918,-3.921c-1.021,0 -1.76,0.339 -2.219,1.015c-0.457,0.675 -0.687,1.644 -0.687,2.906z" fill="#bfbfbf"/>
    <path id="path188" d="m168.371,173.886l-2.441,0l0,-7.034c0,-0.883 -0.178,-1.541 -0.532,-1.976c-0.355,-0.435 -0.919,-0.652 -1.691,-0.652c-1.027,0 -1.779,0.304 -2.255,0.911c-0.477,0.606 -0.714,1.624 -0.714,3.051l0,5.7l-2.431,0l0,-11.441l1.903,0l0.341,1.5l0.124,0c0.345,-0.544 0.835,-0.965 1.469,-1.262c0.635,-0.296 1.338,-0.444 2.11,-0.444c2.745,0 4.117,1.396 4.117,4.189l0,7.458z" fill="#bfbfbf"/>
    <text transform="matrix(1.006593942642212,0,0,0.9642857313156128,-0.41212141513824463,5.477117924019694) " xml:space="preserve" text-anchor="middle" font-family="serif" font-size="24" id="svg_4" y="175.53905" x="74.70673" stroke-linecap="null" stroke-linejoin="null" stroke-dasharray="null" stroke-width="0" fill="#bfbfbf">2017</text>
   </g>
   <g id="g198">
    <path id="path192" d="m55.729,143.313l6.922,0l0,8.644c-1.879,0.644 -3.945,0.966 -6.198,0.966c-2.472,0 -4.382,-0.717 -5.731,-2.15s-2.024,-3.478 -2.024,-6.132c0,-2.589 0.739,-4.604 2.216,-6.044s3.547,-2.161 6.208,-2.161c1.009,0 1.962,0.096 2.858,0.285c0.896,0.19 1.676,0.432 2.342,0.725l-1.371,3.4c-1.156,-0.57 -2.424,-0.855 -3.807,-0.855c-1.265,0 -2.243,0.411 -2.934,1.233c-0.691,0.823 -1.037,1.998 -1.037,3.526c0,1.5 0.313,2.643 0.938,3.429c0.625,0.786 1.526,1.179 2.704,1.179c0.644,0 1.236,-0.062 1.777,-0.187l0,-2.512l-2.863,0l0,-3.346z" fill="#bfbfbf"/>
    <path id="path194" d="m78.185,144.345c0,2.677 -0.737,4.738 -2.21,6.187s-3.545,2.172 -6.214,2.172l-5.188,0l0,-16.037l5.551,0c2.574,0 4.561,0.658 5.961,1.975s2.1,3.216 2.1,5.703zm-4.497,0.153c0,-1.47 -0.291,-2.56 -0.872,-3.269s-1.464,-1.064 -2.649,-1.064l-1.262,0l0,8.984l0.965,0c1.316,0 2.282,-0.383 2.896,-1.146c0.614,-0.765 0.922,-1.933 0.922,-3.505z" fill="#bfbfbf"/>
    <path id="path196" d="m86.15,143.313l6.922,0l0,8.644c-1.879,0.644 -3.945,0.966 -6.198,0.966c-2.472,0 -4.382,-0.717 -5.731,-2.15s-2.024,-3.478 -2.024,-6.132c0,-2.589 0.739,-4.604 2.216,-6.044s3.547,-2.161 6.208,-2.161c1.009,0 1.962,0.096 2.858,0.285c0.896,0.19 1.676,0.432 2.342,0.725l-1.371,3.4c-1.156,-0.57 -2.424,-0.855 -3.807,-0.855c-1.265,0 -2.243,0.411 -2.934,1.233c-0.691,0.823 -1.037,1.998 -1.037,3.526c0,1.5 0.313,2.643 0.938,3.429c0.625,0.786 1.526,1.179 2.704,1.179c0.644,0 1.236,-0.062 1.777,-0.187l0,-2.512l-2.863,0l0,-3.346z" fill="#bfbfbf"/>
   </g>
   <radialGradient gradientUnits="userSpaceOnUse" gradientTransform="matrix(0.498 0 0 0.498 172.2891 79.7388)" r="20.1137" cy="192.9653" cx="-310.265" id="SVGID_9_">
    <stop stop-color="#FFCF4F" id="stop200" offset="0"/>
    <stop stop-color="#F4C236" id="stop202" offset="1"/>
   </radialGradient>
   <path id="path205" d="m9.068,187l6.791,0c1.607,0 3.604,-1.128 4.432,-2.511l5.72,-9.519c0.677,-1.396 0.653,-3.426 -0.119,-4.713l-3.378,-5.592l-13.446,22.335z" fill="url(#SVGID_9_)"/>
   <radialGradient gradientUnits="userSpaceOnUse" gradientTransform="matrix(0.498 0 0 0.498 172.2891 79.7388)" r="27.6582" cy="182.7508" cx="-322.3167" id="SVGID_10_">
    <stop stop-color="#08A960" id="stop207" offset="0"/>
    <stop stop-color="#07914B" id="stop209" offset="1"/>
   </radialGradient>
   <path id="path212" d="m16.368,159.514l-15.102,25.249c-0.583,1.248 0.023,2.237 1.521,2.237l6.281,0l13.446,-22.335l-6.146,-10.173c0.829,1.378 0.829,3.638 0,5.022" fill="url(#SVGID_10_)"/>
   <radialGradient gradientUnits="userSpaceOnUse" gradientTransform="matrix(0.498 0 0 0.498 172.2891 79.7388)" r="40.54" cy="143.0691" cx="-312.8651" id="SVGID_11_">
    <stop stop-color="#567FC0" id="stop214" offset="0"/>
    <stop stop-color="#557FC0" id="stop216" offset="1"/>
   </radialGradient>
   <path id="path219" d="m2.787,127c-1.613,0 -2.254,1.133 -1.424,2.511l24.529,40.745c0.772,1.288 0.795,3.317 0.119,4.713l5.963,-9.925l-22.902,-38.044l-6.285,0z" fill="url(#SVGID_11_)"/>
   <radialGradient gradientUnits="userSpaceOnUse" gradientTransform="matrix(0.498 0 0 0.498 172.2891 79.7388)" r="33.0584" cy="133.1039" cx="-300.8011" id="SVGID_12_">
    <stop stop-color="#E14C40" id="stop221" offset="0"/>
    <stop stop-color="#CD392D" id="stop223" offset="1"/>
   </radialGradient>
   <path id="path226" d="m9.072,127l22.903,38.045l3.321,-5.53c0.83,-1.385 0.83,-3.645 0,-5.023l-15.004,-24.981c-0.829,-1.378 -2.825,-2.511 -4.432,-2.511l-6.788,0z" fill="url(#SVGID_12_)"/>
  </g>
 </g>
</svg>